<?xml version="1.0" encoding="UTF-8"?>
<svg id="Layer_2" data-name="Layer 2" xmlns="http://www.w3.org/2000/svg" viewBox="0 0 740 493.76">
  <defs>
    <style>
      .cls-1 {
        fill: #101010;
      }

      .cls-2 {
        fill: #282828;
      }

      .cls-3 {
        fill: #7b7c7c;
      }
    </style>
  </defs>
  <g id="Layer_1-2" data-name="Layer 1">
    <g id="DyWX9j.tif">
      <g>
        <path class="cls-2" d="m236.43,493.76c-.15-1.07-.66-1.44-1.83-1.56-3.74-.38-7.48-.29-11.22-.26-7.51.05-14.88-1.05-22.18-2.6-8.1-1.71-16.19-3.46-24.12-5.93-7.79-2.42-15.54-4.91-23.09-8.01-15.23-6.26-29.77-13.8-43.49-22.92-10.86-7.21-21.04-15.26-30.68-24.02-14.47-13.15-26.97-27.94-37.92-44.14-7.1-10.51-13.41-21.44-18.8-32.88-7.86-16.7-13.86-34.06-17.69-52.14-1.82-8.61-3.28-17.27-4.41-26-1.71-13.22-.63-26.47-.91-39.7-.09-4.47.54-8.87,1.06-13.26,2.98-25.54,9.38-50.2,19.97-73.69,6.65-14.75,14.39-28.92,23.77-42.12,4.75-6.69,9.79-13.16,15.25-19.35,5.63-6.38,11.37-12.63,17.62-18.35,4.99-4.56,10.11-9.01,15.55-13.13,4.93-3.73,9.87-7.42,14.88-11.05,4.76-3.45,9.79-6.41,14.78-9.45,7.13-4.33,14.64-7.98,22.2-11.43,6.47-2.94,13.2-5.37,19.93-7.76,7.59-2.71,15.32-4.9,23.13-6.82,6.26-1.54,12.6-2.72,18.97-3.75,7.14-1.15,14.34-1.62,21.51-2.42,7.93-.88,15.86-1,23.79-.79,5.75.15,11.5.89,17.24,1.26,6.46.41,12.81,1.35,19.16,2.41,24.34,4.09,47.44,11.9,69.44,23.03,7.18,3.63,14.01,7.83,20.79,12.16,9.98,6.38,19.44,13.43,28.63,20.89-.09,1.12-.37,2.2-1.08,3.09-6.66,8.25-12.5,17.05-17.9,26.16-4.34,7.31-8.48,14.75-12.13,22.42-3.74,7.86-7.99,15.48-11.05,23.67-2,5.34-4.55,10.47-6.69,15.77-3.35,8.3-6.58,16.64-9.79,24.99-1.78,4.63-3.88,9.2-5.28,13.9-1.82,6.15-3.93,12.18-6.09,18.2-1.76,4.91-3.12,9.96-5.29,14.76-1.53,3.38-2.12,7.19-3.11,10.82-.84,3.06-2.45,5.87-3.27,8.87-.92,3.36-2.03,6.66-2.93,10.02-.44,1.66-1.46,3.08-2.89,4.13-.03-1.83-.34-3.71-.03-5.47,1.09-6.12.3-12.21-.77-18.14-3.11-17.4-11.71-31.84-25.3-43.13-17.16-14.26-37.06-19.48-58.99-16.24-20.44,3.01-36.73,13.41-48.84,29.99-7.5,10.27-11.72,22-13.13,34.7-.96,8.65-.63,17.2,1.57,25.65,4.71,18.08,14.41,32.73,29.73,43.6,10.65,7.55,22.67,11.53,35.46,12.93,7.17.79,14.46.17,21.62-1.32,14.93-3.11,27.68-10.11,38.37-20.96,4.95-5.03,8.74-10.9,12.53-16.77,1.41.72.92,1.78.57,2.87-1.62,5.12-3.21,10.25-4.8,15.38-4.57,14.76-8.92,29.6-13.76,44.27-3.08,9.33-5.85,18.76-9.03,28.06-4.13,12.07-7.66,24.34-11.48,36.52-2.35,7.48-4.79,14.94-7.15,22.41-1.83,5.81-3.48,11.68-5.43,17.45-2.49,7.33-4.83,14.72-7.11,22.11-2.01,6.51-4.14,12.97-6.29,19.42-.53,1.6-.06,2.11,1.29,2.17,1.66.07,3.31,0,4.99-.18,3.28-.35,6.6-.7,9.88.17-.26.51.72.99.03,1.5h-27.75Z"/>
        <path class="cls-1" d="m264.15,492.26c-3.28-.86-6.6-.52-9.88-.17-1.67.18-3.33.24-4.99.18-1.34-.05-1.82-.56-1.29-2.17,2.15-6.45,4.29-12.91,6.29-19.42,2.28-7.39,4.62-14.77,7.11-22.11,1.96-5.77,3.6-11.64,5.43-17.45,2.36-7.48,4.8-14.93,7.15-22.41,3.82-12.17,7.35-24.45,11.48-36.52,3.18-9.3,5.95-18.73,9.03-28.06,4.84-14.67,9.2-29.51,13.76-44.27,1.59-5.13,3.18-10.26,4.8-15.38.35-1.09.84-2.15-.57-2.87.15-.44.28-.89.45-1.32,3.07-7.64,5.76-15.4,7.32-23.51,1.42-1.06,2.44-2.48,2.89-4.13.9-3.36,2.01-6.66,2.93-10.02.82-3,2.43-5.81,3.27-8.87.99-3.62,1.58-7.43,3.11-10.82,2.17-4.8,3.53-9.84,5.29-14.76,2.16-6.02,4.27-12.05,6.09-18.2,1.39-4.7,3.5-9.27,5.28-13.9,3.21-8.35,6.45-16.69,9.79-24.99,2.13-5.29,4.69-10.43,6.69-15.77,3.06-8.19,7.3-15.81,11.05-23.67,3.65-7.67,7.79-15.11,12.13-22.42,5.4-9.1,11.24-17.91,17.9-26.16.72-.89.99-1.96,1.08-3.09,4.2-4.95,8.65-9.68,13.35-14.17,11.57-11.05,24.6-19.92,39.23-26.46,12.31-5.5,25.23-9.07,38.35-11.95,4.65-1.02,9.39-1.96,14.12-2.2,2.8-.14,5.3-1.31,8.1-1.3,2.81.02,5.61-.62,8.42-.81,7.97-.53,15.89-1.47,23.9-1.58,5.12-.07,10.22-.93,15.37-.87.94.01,1.91-.13,2.74.48.46.04.85-.04.99-.55,4.98-.41,9.97-.53,14.96-.13,1.34.11,2.57-.46,3.92-.46,48.71.05,97.43.04,146.14.04,3.09,0,2.84.04,2.35,3.2-1.05,6.76-3.4,13.14-5.44,19.59-3.67,11.64-8.71,22.76-14.36,33.58-3.88,7.43-8.23,14.62-13.08,21.47-3.33,4.7-6.8,9.31-10.42,13.82-3.98,4.95-8.18,9.69-12.58,14.21-3.65,3.75-7.14,7.65-11.54,10.76-2.65,1.87-5.09,4.36-7.61,6.59-6.53,5.77-13.69,10.66-20.87,15.55-7.87,5.36-16.16,10.02-24.47,14.62-5.47,3.03-11.25,5.54-16.99,8.04-5.81,2.53-11.73,4.79-17.65,7.06-6.42,2.46-12.93,4.59-19.47,6.64-8.6,2.69-17.27,5.13-26.07,7.06-3.66.8-7.31,1.6-10.97,2.39-.38.08-.83,0-.87.56-.05.81.57.72,1.11.89,5.76,1.79,11.72,2.63,17.61,3.8,6.19,1.23,12.48,1.65,18.74,2.27,11.98,1.19,24,.63,36,.57,6.01-.03,11.95-.88,17.92-1.29,6.65-.45,13.2-1.46,19.79-2.31,5.34-.69,10.61-1.72,15.9-2.71,1.7-.32,3.4-.6,5.11-.83,1.22-.16,1.59.52,1.3,1.6-3.1,11.38-5.76,22.89-10.48,33.78-4.45,10.26-9.63,20.14-15.07,29.88-3.08,5.52-6.73,10.71-10.49,15.8-9.17,12.43-19.8,23.45-31.72,33.29-19.22,15.86-40.9,27.03-64.54,34.64-9.15,2.94-18.47,5.26-27.88,7.13-6.23,1.23-12.61,1.7-18.92,2.47-2.12.26-4.25.44-6.37.53-1.21.05-1.87.61-2.34,1.66-.81,1.8-2.08,3.48-2.47,5.35-.5,2.36-2.03,4.03-3.03,6.04-4.08,8.15-8.84,15.91-13.79,23.55-4.34,6.7-8.97,13.18-13.85,19.5-3.91,5.05-8.41,9.58-12.46,14.48-2.87,3.47-6.04,6.71-9.3,9.67-4.38,3.97-8.72,8.04-13.38,11.74-5.35,4.24-10.69,8.49-16.27,12.43-6.69,4.72-13.65,8.99-20.75,13.03-9.91,5.63-20.19,10.49-30.82,14.61-2.39.93-5.02,1.39-7.27,2.4-3.2,1.44-6.5,2.44-9.78,3.56-6.92,2.35-14.02,4.03-21.17,5.53-9.02,1.9-18.06,3.72-27.31,4.07-2.38.09-4.78-.03-7.16-.05Z"/>
        <path class="cls-3" d="m572.33.59c-.15.51-.54.59-.99.55.2-.42.26-1.09.99-.55Z"/>
      </g>
    </g>
  </g>
</svg>