<?xml version="1.0" encoding="UTF-8"?>
<svg id="Layer_2" data-name="Layer 2" xmlns="http://www.w3.org/2000/svg" viewBox="0 0 513.79 609.67">
  <defs>
    <style>
      .cls-1 {
        fill: #27326e;
      }

      .cls-1, .cls-2, .cls-3 {
        fill-rule: evenodd;
      }

      .cls-2 {
        fill: #233e81;
      }

      .cls-3 {
        fill: #219cd8;
      }
    </style>
  </defs>
  <g id="Layer_2-2" data-name="Layer 2">
    <path class="cls-3" d="m219.58,143.51h171.96c92.33,0,127.08,46.74,121.71,115.41-8.88,113.37-77.41,176.09-168.32,176.09h-45.9c-12.47,0-20.86,8.26-24.24,30.63l-19.49,130.06c-1.29,8.43-5.73,13.32-12.38,13.98h-108.04c-10.16,0-13.76-7.77-11.1-24.59l65.87-416.94c2.57-16.69,11.72-24.64,29.92-24.64Z"/>
    <path class="cls-2" d="m112.03,0h172.14c48.47,0,106,1.55,144.44,35.51,25.7,22.68,39.19,58.77,36.09,97.65-10.56,131.43-89.18,205.07-194.64,205.07h-84.87c-14.47,0-24.01,9.59-28.1,35.51l-23.7,150.92c-1.55,9.77-5.77,15.54-13.32,16.25H13.84c-11.76,0-15.94-8.88-12.87-28.5L77.32,28.67C80.38,9.23,91.08,0,112.03,0Z"/>
    <path class="cls-1" d="m159.57,358.44l30.05-190.29c2.62-16.69,11.76-24.68,29.96-24.68h171.96c28.45,0,51.49,4.44,69.51,12.65-17.27,117.01-92.95,181.99-192.02,181.99h-84.74c-11.36.04-19.71,5.73-24.72,20.33Z"/>
  </g>
</svg>